<svg width="256" height="339" viewBox="0 0 256 339" fill="none" xmlns="http://www.w3.org/2000/svg">
<path d="M19.8223 0.0380859C19.8096 0.190397 19.8018 0.344406 19.8018 0.5C19.8018 3.52806 22.2571 5.98242 25.2852 5.98242C28.3131 5.98233 30.7676 3.528 30.7676 0.5C30.7676 0.351681 30.7596 0.204917 30.748 0.0595703L42.5332 0.0820312C42.5228 0.220019 42.5166 0.35935 42.5166 0.5C42.5166 3.528 44.971 5.98234 47.999 5.98242C51.0271 5.98242 53.4824 3.52806 53.4824 0.5C53.4824 0.366625 53.4752 0.234505 53.4658 0.103516L65.2451 0.125977C65.2368 0.249604 65.2314 0.37426 65.2314 0.5C65.2314 3.52804 67.6858 5.9824 70.7139 5.98242C73.7419 5.98242 76.1963 3.52806 76.1963 0.5C76.1963 0.381531 76.191 0.264062 76.1836 0.147461L87.9551 0.169922C87.9486 0.279118 87.9453 0.389176 87.9453 0.5C87.9453 3.52793 90.3999 5.98222 93.4277 5.98242C96.4558 5.98242 98.9111 3.52806 98.9111 0.5C98.9111 0.396421 98.907 0.293568 98.9014 0.191406L110.667 0.213867C110.662 0.308631 110.659 0.404024 110.659 0.5C110.659 3.52806 113.115 5.98242 116.143 5.98242C119.171 5.98227 121.625 3.52796 121.625 0.5C121.625 0.411266 121.622 0.323054 121.618 0.235352L133.38 0.257812C133.376 0.338111 133.374 0.418842 133.374 0.5C133.374 3.52806 135.829 5.98242 138.857 5.98242C141.885 5.98221 144.34 3.52793 144.34 0.5C144.34 0.426062 144.337 0.352524 144.334 0.279297L156.093 0.301758C156.09 0.367559 156.089 0.433628 156.089 0.5C156.089 3.52806 158.543 5.98242 161.571 5.98242C164.599 5.98239 167.054 3.52803 167.054 0.5C167.054 0.440832 167.051 0.381958 167.049 0.323242L178.806 0.345703C178.804 0.396971 178.803 0.44839 178.803 0.5C178.803 3.52797 181.257 5.98228 184.285 5.98242C187.313 5.98242 189.769 3.52806 189.769 0.5C189.769 0.455915 189.766 0.412 189.765 0.368164L201.52 0.390625C201.519 0.427005 201.518 0.46345 201.518 0.5C201.518 3.528 203.972 5.98233 207 5.98242C210.028 5.98242 212.483 3.52806 212.483 0.5C212.483 0.470966 212.481 0.442013 212.48 0.413086L224.232 0.436523C224.232 0.457656 224.231 0.478811 224.231 0.5C224.231 3.52789 226.686 5.98216 229.714 5.98242C232.742 5.98242 235.197 3.52806 235.197 0.5C235.197 0.485986 235.195 0.471997 235.195 0.458008L256 0.5V18.5146C255.994 18.5146 255.988 18.5146 255.982 18.5146C252.954 18.5147 250.5 20.97 250.5 23.998C250.5 27.026 252.954 29.4804 255.982 29.4805C255.988 29.4805 255.994 29.4795 256 29.4795V41.2295C255.994 41.2295 255.988 41.2295 255.982 41.2295C252.954 41.2295 250.5 43.6839 250.5 46.7119C250.5 49.7399 252.954 52.1953 255.982 52.1953C255.988 52.1953 255.994 52.1944 256 52.1943V63.9434C255.994 63.9433 255.988 63.9434 255.982 63.9434C252.954 63.9434 250.5 66.3987 250.5 69.4268C250.5 72.4547 252.954 74.9091 255.982 74.9092C255.988 74.9092 255.994 74.9082 256 74.9082V86.6582C255.994 86.6582 255.988 86.6582 255.982 86.6582C252.954 86.6582 250.5 89.1126 250.5 92.1406C250.5 95.1687 252.954 97.623 255.982 97.623C255.988 97.623 255.994 97.6221 256 97.6221V109.372C255.994 109.372 255.988 109.372 255.982 109.372C252.954 109.372 250.5 111.827 250.5 114.855C250.5 117.883 252.955 120.338 255.982 120.338C255.988 120.338 255.994 120.337 256 120.337V132.087C255.994 132.087 255.988 132.087 255.982 132.087C252.955 132.087 250.5 134.541 250.5 137.569C250.5 140.597 252.954 143.053 255.982 143.053C255.988 143.053 255.994 143.052 256 143.052V154.801C255.994 154.801 255.988 154.801 255.982 154.801C252.954 154.801 250.5 157.256 250.5 160.284C250.5 163.312 252.955 165.767 255.982 165.767C255.988 165.767 255.994 165.766 256 165.766V177.516C255.994 177.516 255.988 177.516 255.982 177.516C252.954 177.516 250.5 179.97 250.5 182.998C250.5 186.026 252.954 188.481 255.982 188.481C255.988 188.481 255.994 188.48 256 188.48V200.229C255.994 200.229 255.988 200.229 255.982 200.229C252.954 200.23 250.5 202.685 250.5 205.713C250.5 208.741 252.954 211.195 255.982 211.195C255.988 211.195 255.994 211.194 256 211.194V222.944C255.994 222.944 255.988 222.944 255.982 222.944C252.954 222.944 250.5 225.399 250.5 228.427C250.5 231.455 252.954 233.91 255.982 233.91C255.988 233.91 255.994 233.909 256 233.909V245.658C255.994 245.658 255.988 245.658 255.982 245.658C252.954 245.658 250.5 248.114 250.5 251.142C250.5 254.17 252.954 256.624 255.982 256.624C255.988 256.624 255.994 256.623 256 256.623V268.373C255.994 268.373 255.988 268.373 255.982 268.373C252.955 268.373 250.5 270.828 250.5 273.855C250.5 276.883 252.954 279.339 255.982 279.339C255.988 279.339 255.994 279.338 256 279.338V291.087C255.994 291.087 255.988 291.087 255.982 291.087C252.954 291.087 250.5 293.542 250.5 296.57C250.5 299.598 252.954 302.053 255.982 302.053C255.988 302.053 255.994 302.052 256 302.052V313.802C255.994 313.802 255.988 313.802 255.982 313.802C252.955 313.802 250.5 316.256 250.5 319.284C250.5 322.312 252.954 324.768 255.982 324.768C255.988 324.768 255.994 324.767 256 324.767V338.5L235.184 338.458C234.996 335.6 232.619 333.34 229.714 333.34C226.816 333.34 224.444 335.589 224.246 338.437L212.466 338.413C212.256 335.576 209.89 333.34 207 333.34C204.117 333.34 201.755 335.565 201.535 338.392L189.748 338.368C189.517 335.553 187.16 333.34 184.285 333.34C181.418 333.34 179.066 335.541 178.824 338.346L167.029 338.323C166.777 335.529 164.431 333.34 161.571 333.34C158.719 333.34 156.376 335.518 156.113 338.302L144.312 338.279C144.04 335.506 141.702 333.34 138.857 333.34C136.02 333.34 133.685 335.495 133.402 338.258L121.593 338.235C121.3 335.484 118.972 333.34 116.143 333.34C113.32 333.34 110.996 335.472 110.693 338.214L98.873 338.191C98.5599 335.461 96.2422 333.34 93.4277 333.34C90.6208 333.34 88.3071 335.45 87.9844 338.17L76.1533 338.147C75.8204 335.438 73.5132 333.34 70.7139 333.34C67.9219 333.34 65.6187 335.427 65.2764 338.126L53.4336 338.104C53.0813 335.415 50.7832 333.34 47.999 333.34C45.2222 333.34 42.928 335.404 42.5664 338.082L30.7129 338.06C30.3414 335.393 28.0541 333.34 25.2852 333.34C22.5235 333.34 20.2391 335.382 19.8584 338.038L0 338V324.752C3.02003 324.743 5.46582 322.292 5.46582 319.27C5.4657 316.247 3.01996 313.797 0 313.787V302.037C3.01987 302.028 5.46556 299.578 5.46582 296.556C5.46582 293.533 3.02003 291.082 0 291.072V279.323C3.02003 279.314 5.46582 276.863 5.46582 273.841C5.46573 270.819 3.01998 268.368 0 268.358V256.608C3.01989 256.599 5.46559 254.149 5.46582 251.127C5.46582 248.105 3.02003 245.653 0 245.644V233.894C3.02002 233.884 5.4658 231.434 5.46582 228.412C5.46582 225.39 3.02003 222.939 0 222.93V211.18C3.0199 211.17 5.46561 208.72 5.46582 205.698C5.46582 202.676 3.02003 200.224 0 200.215V188.465C3.02003 188.455 5.46582 186.006 5.46582 182.983C5.46582 179.961 3.02003 177.51 0 177.501V165.751C3.02003 165.742 5.46582 163.291 5.46582 160.269C5.46561 157.246 3.01991 154.796 0 154.786V143.036C3.02003 143.027 5.46582 140.577 5.46582 137.555C5.46579 134.532 3.02001 132.082 0 132.072V120.322C3.02003 120.313 5.46582 117.862 5.46582 114.84C5.46559 111.818 3.01989 109.367 0 109.357V97.6074C3.01998 97.598 5.46573 95.1481 5.46582 92.126C5.46582 89.1037 3.02003 86.652 0 86.6426V74.8936C3.01987 74.8841 5.46556 72.4341 5.46582 69.4121C5.46582 66.3899 3.02003 63.9381 0 63.9287V52.1787C3.01999 52.1693 5.46576 49.7195 5.46582 46.6973C5.46582 43.675 3.02003 41.2243 0 41.2148V29.4648C3.01989 29.4554 5.46559 27.0054 5.46582 23.9834C5.46582 20.9612 3.02003 18.5094 0 18.5V0L19.8223 0.0380859Z" fill="#D9D9D9"/>
</svg>
